<?xml version="1.0" encoding="UTF-8" standalone="no"?>
<!DOCTYPE svg PUBLIC "-//W3C//DTD SVG 1.1//EN"
 "http://www.w3.org/Graphics/SVG/1.1/DTD/svg11.dtd">
<!-- Generated by graphviz version 2.42.2 ()
 -->
<!-- Pages: 1 -->
<svg width="582pt" height="980pt"
 viewBox="0.00 0.00 581.90 980.00" xmlns="http://www.w3.org/2000/svg" xmlns:xlink="http://www.w3.org/1999/xlink">
<g id="graph0" class="graph" transform="scale(1 1) rotate(0) translate(4 976)">
<polygon fill="white" stroke="transparent" points="-4,4 -4,-976 577.9,-976 577.9,4 -4,4"/>
<!-- n19 -->
<g id="node1" class="node">
<title>n19</title>
<ellipse fill="none" stroke="black" cx="430.9" cy="-810" rx="27.9" ry="18"/>
<text text-anchor="middle" x="430.9" y="-806.3" font-family="Times,serif" font-size="14.00">v19</text>
</g>
<!-- n13 -->
<g id="node7" class="node">
<title>n13</title>
<ellipse fill="none" stroke="black" cx="395.9" cy="-738" rx="27.9" ry="18"/>
<text text-anchor="middle" x="395.9" y="-734.3" font-family="Times,serif" font-size="14.00">v13</text>
</g>
<!-- n19&#45;&gt;n13 -->
<g id="edge4" class="edge">
<title>n19&#45;&gt;n13</title>
<path fill="none" stroke="black" d="M422.78,-792.76C418.6,-784.4 413.41,-774.02 408.7,-764.61"/>
<polygon fill="black" stroke="black" points="411.82,-763.01 404.22,-755.63 405.56,-766.14 411.82,-763.01"/>
</g>
<!-- n18 -->
<g id="node2" class="node">
<title>n18</title>
<ellipse fill="none" stroke="black" cx="283.9" cy="-738" rx="27.9" ry="18"/>
<text text-anchor="middle" x="283.9" y="-734.3" font-family="Times,serif" font-size="14.00">v18</text>
</g>
<!-- n15 -->
<g id="node5" class="node">
<title>n15</title>
<ellipse fill="none" stroke="black" cx="283.9" cy="-666" rx="27.9" ry="18"/>
<text text-anchor="middle" x="283.9" y="-662.3" font-family="Times,serif" font-size="14.00">v15</text>
</g>
<!-- n18&#45;&gt;n15 -->
<g id="edge7" class="edge">
<title>n18&#45;&gt;n15</title>
<path fill="none" stroke="black" d="M283.9,-719.7C283.9,-711.98 283.9,-702.71 283.9,-694.11"/>
<polygon fill="black" stroke="black" points="287.4,-694.1 283.9,-684.1 280.4,-694.1 287.4,-694.1"/>
</g>
<!-- n17 -->
<g id="node3" class="node">
<title>n17</title>
<ellipse fill="none" stroke="black" cx="84.9" cy="-450" rx="27.9" ry="18"/>
<text text-anchor="middle" x="84.9" y="-446.3" font-family="Times,serif" font-size="14.00">v17</text>
</g>
<!-- n14 -->
<g id="node6" class="node">
<title>n14</title>
<ellipse fill="none" stroke="black" cx="140.9" cy="-378" rx="27.9" ry="18"/>
<text text-anchor="middle" x="140.9" y="-374.3" font-family="Times,serif" font-size="14.00">v14</text>
</g>
<!-- n17&#45;&gt;n14 -->
<g id="edge20" class="edge">
<title>n17&#45;&gt;n14</title>
<path fill="none" stroke="black" d="M97.33,-433.46C104.65,-424.31 114.06,-412.55 122.25,-402.31"/>
<polygon fill="black" stroke="black" points="124.99,-404.49 128.51,-394.49 119.53,-400.11 124.99,-404.49"/>
</g>
<!-- n16 -->
<g id="node4" class="node">
<title>n16</title>
<ellipse fill="none" stroke="black" cx="401.9" cy="-954" rx="27.9" ry="18"/>
<text text-anchor="middle" x="401.9" y="-950.3" font-family="Times,serif" font-size="14.00">v16</text>
</g>
<!-- n9 -->
<g id="node11" class="node">
<title>n9</title>
<ellipse fill="none" stroke="black" cx="374.9" cy="-882" rx="27" ry="18"/>
<text text-anchor="middle" x="374.9" y="-878.3" font-family="Times,serif" font-size="14.00">v9</text>
</g>
<!-- n16&#45;&gt;n9 -->
<g id="edge1" class="edge">
<title>n16&#45;&gt;n9</title>
<path fill="none" stroke="black" d="M395.5,-936.41C392.39,-928.34 388.57,-918.43 385.06,-909.35"/>
<polygon fill="black" stroke="black" points="388.3,-908.03 381.44,-899.96 381.77,-910.55 388.3,-908.03"/>
</g>
<!-- n5 -->
<g id="node15" class="node">
<title>n5</title>
<ellipse fill="none" stroke="black" cx="503.9" cy="-810" rx="27" ry="18"/>
<text text-anchor="middle" x="503.9" y="-806.3" font-family="Times,serif" font-size="14.00">v5</text>
</g>
<!-- n16&#45;&gt;n5 -->
<g id="edge2" class="edge">
<title>n16&#45;&gt;n5</title>
<path fill="none" stroke="black" d="M413.2,-937.26C430.97,-912.52 465.56,-864.37 486.51,-835.2"/>
<polygon fill="black" stroke="black" points="489.55,-836.97 492.54,-826.81 483.87,-832.89 489.55,-836.97"/>
</g>
<!-- n12 -->
<g id="node8" class="node">
<title>n12</title>
<ellipse fill="none" stroke="black" cx="292.9" cy="-450" rx="27.9" ry="18"/>
<text text-anchor="middle" x="292.9" y="-446.3" font-family="Times,serif" font-size="14.00">v12</text>
</g>
<!-- n15&#45;&gt;n12 -->
<g id="edge14" class="edge">
<title>n15&#45;&gt;n12</title>
<path fill="none" stroke="black" d="M284.62,-647.85C286.18,-610.83 289.86,-523.18 291.75,-478.39"/>
<polygon fill="black" stroke="black" points="295.25,-478.37 292.17,-468.23 288.26,-478.08 295.25,-478.37"/>
</g>
<!-- n8 -->
<g id="node12" class="node">
<title>n8</title>
<ellipse fill="none" stroke="black" cx="225.9" cy="-594" rx="27" ry="18"/>
<text text-anchor="middle" x="225.9" y="-590.3" font-family="Times,serif" font-size="14.00">v8</text>
</g>
<!-- n15&#45;&gt;n8 -->
<g id="edge11" class="edge">
<title>n15&#45;&gt;n8</title>
<path fill="none" stroke="black" d="M271.31,-649.81C263.64,-640.55 253.67,-628.52 245.03,-618.09"/>
<polygon fill="black" stroke="black" points="247.53,-615.63 238.46,-610.16 242.14,-620.09 247.53,-615.63"/>
</g>
<!-- n4 -->
<g id="node16" class="node">
<title>n4</title>
<ellipse fill="none" stroke="black" cx="132.9" cy="-522" rx="27" ry="18"/>
<text text-anchor="middle" x="132.9" y="-518.3" font-family="Times,serif" font-size="14.00">v4</text>
</g>
<!-- n15&#45;&gt;n4 -->
<g id="edge12" class="edge">
<title>n15&#45;&gt;n4</title>
<path fill="none" stroke="black" d="M260.61,-655.73C240.24,-646.78 210.73,-631.69 189.9,-612 170.62,-593.78 154.94,-567.75 144.94,-548.55"/>
<polygon fill="black" stroke="black" points="147.99,-546.83 140.37,-539.47 141.74,-549.98 147.99,-546.83"/>
</g>
<!-- n11 -->
<g id="node9" class="node">
<title>n11</title>
<ellipse fill="none" stroke="black" cx="167.9" cy="-162" rx="27.9" ry="18"/>
<text text-anchor="middle" x="167.9" y="-158.3" font-family="Times,serif" font-size="14.00">v11</text>
</g>
<!-- n14&#45;&gt;n11 -->
<g id="edge27" class="edge">
<title>n14&#45;&gt;n11</title>
<path fill="none" stroke="black" d="M147.94,-360.13C151.89,-349.88 156.49,-336.4 158.9,-324 167.87,-277.78 168.94,-222.81 168.61,-190.53"/>
<polygon fill="black" stroke="black" points="172.11,-190.05 168.45,-180.11 165.11,-190.16 172.11,-190.05"/>
</g>
<!-- n7 -->
<g id="node13" class="node">
<title>n7</title>
<ellipse fill="none" stroke="black" cx="122.9" cy="-306" rx="27" ry="18"/>
<text text-anchor="middle" x="122.9" y="-302.3" font-family="Times,serif" font-size="14.00">v7</text>
</g>
<!-- n14&#45;&gt;n7 -->
<g id="edge24" class="edge">
<title>n14&#45;&gt;n7</title>
<path fill="none" stroke="black" d="M136.54,-360.05C134.51,-352.14 132.04,-342.54 129.76,-333.69"/>
<polygon fill="black" stroke="black" points="133.1,-332.6 127.22,-323.79 126.32,-334.35 133.1,-332.6"/>
</g>
<!-- n3 -->
<g id="node17" class="node">
<title>n3</title>
<ellipse fill="none" stroke="black" cx="56.9" cy="-234" rx="27" ry="18"/>
<text text-anchor="middle" x="56.9" y="-230.3" font-family="Times,serif" font-size="14.00">v3</text>
</g>
<!-- n14&#45;&gt;n3 -->
<g id="edge25" class="edge">
<title>n14&#45;&gt;n3</title>
<path fill="none" stroke="black" d="M123.45,-363.6C111.68,-353.77 96.6,-339.47 86.9,-324 74.9,-304.86 67.1,-280.36 62.47,-261.91"/>
<polygon fill="black" stroke="black" points="65.86,-261.03 60.16,-252.1 59.04,-262.64 65.86,-261.03"/>
</g>
<!-- n13&#45;&gt;n15 -->
<g id="edge8" class="edge">
<title>n13&#45;&gt;n15</title>
<path fill="none" stroke="black" d="M376.39,-724.81C358.56,-713.67 332,-697.06 311.91,-684.5"/>
<polygon fill="black" stroke="black" points="313.52,-681.39 303.18,-679.05 309.81,-687.32 313.52,-681.39"/>
</g>
<!-- n13&#45;&gt;n12 -->
<g id="edge15" class="edge">
<title>n13&#45;&gt;n12</title>
<path fill="none" stroke="black" d="M396.56,-719.91C397.36,-679.52 394.93,-576.18 353.9,-504 345.98,-490.06 332.97,-478.01 321,-468.93"/>
<polygon fill="black" stroke="black" points="322.72,-465.86 312.56,-462.87 318.64,-471.54 322.72,-465.86"/>
</g>
<!-- n12&#45;&gt;n14 -->
<g id="edge21" class="edge">
<title>n12&#45;&gt;n14</title>
<path fill="none" stroke="black" d="M270.8,-438.82C244.91,-426.9 201.82,-407.06 172.43,-393.52"/>
<polygon fill="black" stroke="black" points="173.57,-390.19 163.03,-389.19 170.65,-396.55 173.57,-390.19"/>
</g>
<!-- n12&#45;&gt;n11 -->
<g id="edge28" class="edge">
<title>n12&#45;&gt;n11</title>
<path fill="none" stroke="black" d="M292.95,-431.93C292.3,-391.16 285.93,-286.27 239.9,-216 229.62,-200.3 212.99,-187.61 198.3,-178.59"/>
<polygon fill="black" stroke="black" points="199.88,-175.46 189.48,-173.45 196.36,-181.51 199.88,-175.46"/>
</g>
<!-- n2 -->
<g id="node18" class="node">
<title>n2</title>
<ellipse fill="none" stroke="black" cx="167.9" cy="-90" rx="27" ry="18"/>
<text text-anchor="middle" x="167.9" y="-86.3" font-family="Times,serif" font-size="14.00">v2</text>
</g>
<!-- n11&#45;&gt;n2 -->
<g id="edge33" class="edge">
<title>n11&#45;&gt;n2</title>
<path fill="none" stroke="black" d="M167.9,-143.7C167.9,-135.98 167.9,-126.71 167.9,-118.11"/>
<polygon fill="black" stroke="black" points="171.4,-118.1 167.9,-108.1 164.4,-118.1 171.4,-118.1"/>
</g>
<!-- n10 -->
<g id="node10" class="node">
<title>n10</title>
<ellipse fill="none" stroke="black" cx="194.9" cy="-18" rx="27.9" ry="18"/>
<text text-anchor="middle" x="194.9" y="-14.3" font-family="Times,serif" font-size="14.00">v10</text>
</g>
<!-- n9&#45;&gt;n15 -->
<g id="edge9" class="edge">
<title>n9&#45;&gt;n15</title>
<path fill="none" stroke="black" d="M355.48,-869.4C325.5,-850.2 269.08,-808.67 246.9,-756 240.69,-741.25 242.1,-735.26 246.9,-720 250.32,-709.13 256.85,-698.54 263.48,-689.73"/>
<polygon fill="black" stroke="black" points="266.26,-691.86 269.77,-681.86 260.79,-687.48 266.26,-691.86"/>
</g>
<!-- n9&#45;&gt;n13 -->
<g id="edge5" class="edge">
<title>n9&#45;&gt;n13</title>
<path fill="none" stroke="black" d="M377.43,-863.87C381.01,-839.67 387.59,-795.21 391.85,-766.39"/>
<polygon fill="black" stroke="black" points="395.36,-766.59 393.36,-756.19 388.43,-765.57 395.36,-766.59"/>
</g>
<!-- n9&#45;&gt;n12 -->
<g id="edge16" class="edge">
<title>n9&#45;&gt;n12</title>
<path fill="none" stroke="black" d="M370.25,-864.23C360.73,-828.35 339.9,-741.35 339.9,-667 339.9,-667 339.9,-667 339.9,-593 339.9,-550.26 320.47,-503.78 306.6,-476.04"/>
<polygon fill="black" stroke="black" points="309.65,-474.33 301.96,-467.04 303.43,-477.53 309.65,-474.33"/>
</g>
<!-- n9&#45;&gt;n5 -->
<g id="edge3" class="edge">
<title>n9&#45;&gt;n5</title>
<path fill="none" stroke="black" d="M395.34,-869.91C416.66,-858.34 450.3,-840.09 474.48,-826.97"/>
<polygon fill="black" stroke="black" points="476.43,-829.89 483.55,-822.04 473.1,-823.73 476.43,-829.89"/>
</g>
<!-- n8&#45;&gt;n14 -->
<g id="edge22" class="edge">
<title>n8&#45;&gt;n14</title>
<path fill="none" stroke="black" d="M219.23,-576.21C204.49,-539.09 169.04,-449.86 151.33,-405.27"/>
<polygon fill="black" stroke="black" points="154.48,-403.72 147.54,-395.71 147.98,-406.3 154.48,-403.72"/>
</g>
<!-- n8&#45;&gt;n12 -->
<g id="edge17" class="edge">
<title>n8&#45;&gt;n12</title>
<path fill="none" stroke="black" d="M233.58,-576.71C245.13,-552.23 267.07,-505.74 280.79,-476.67"/>
<polygon fill="black" stroke="black" points="283.99,-478.07 285.1,-467.54 277.66,-475.09 283.99,-478.07"/>
</g>
<!-- n8&#45;&gt;n11 -->
<g id="edge29" class="edge">
<title>n8&#45;&gt;n11</title>
<path fill="none" stroke="black" d="M225.9,-575.95C225.9,-549.29 225.9,-496.11 225.9,-451 225.9,-451 225.9,-451 225.9,-305 225.9,-260.98 201.71,-214.6 184.58,-187.26"/>
<polygon fill="black" stroke="black" points="187.45,-185.25 179.08,-178.75 181.57,-189.05 187.45,-185.25"/>
</g>
<!-- n8&#45;&gt;n4 -->
<g id="edge13" class="edge">
<title>n8&#45;&gt;n4</title>
<path fill="none" stroke="black" d="M208.41,-579.83C194.38,-569.27 174.48,-554.3 158.64,-542.37"/>
<polygon fill="black" stroke="black" points="160.41,-539.32 150.31,-536.11 156.2,-544.92 160.41,-539.32"/>
</g>
<!-- n7&#45;&gt;n11 -->
<g id="edge30" class="edge">
<title>n7&#45;&gt;n11</title>
<path fill="none" stroke="black" d="M128.24,-288.15C135.95,-263.81 150.29,-218.57 159.45,-189.67"/>
<polygon fill="black" stroke="black" points="162.88,-190.42 162.57,-179.82 156.21,-188.3 162.88,-190.42"/>
</g>
<!-- n7&#45;&gt;n3 -->
<g id="edge26" class="edge">
<title>n7&#45;&gt;n3</title>
<path fill="none" stroke="black" d="M108.9,-290.15C99.89,-280.6 88.01,-267.99 77.88,-257.25"/>
<polygon fill="black" stroke="black" points="80.28,-254.7 70.88,-249.82 75.19,-259.5 80.28,-254.7"/>
</g>
<!-- n7&#45;&gt;n2 -->
<g id="edge34" class="edge">
<title>n7&#45;&gt;n2</title>
<path fill="none" stroke="black" d="M120.74,-287.97C117.58,-257.95 113.78,-194.05 130.9,-144 134.59,-133.22 141.17,-122.65 147.77,-113.82"/>
<polygon fill="black" stroke="black" points="150.55,-115.96 154.01,-105.94 145.06,-111.61 150.55,-115.96"/>
</g>
<!-- n6 -->
<g id="node14" class="node">
<title>n6</title>
<ellipse fill="none" stroke="black" cx="240.9" cy="-162" rx="27" ry="18"/>
<text text-anchor="middle" x="240.9" y="-158.3" font-family="Times,serif" font-size="14.00">v6</text>
</g>
<!-- n6&#45;&gt;n10 -->
<g id="edge37" class="edge">
<title>n6&#45;&gt;n10</title>
<path fill="none" stroke="black" d="M235.44,-144.15C227.56,-119.81 212.9,-74.57 203.54,-45.67"/>
<polygon fill="black" stroke="black" points="206.76,-44.26 200.35,-35.82 200.1,-46.42 206.76,-44.26"/>
</g>
<!-- n6&#45;&gt;n2 -->
<g id="edge35" class="edge">
<title>n6&#45;&gt;n2</title>
<path fill="none" stroke="black" d="M226.13,-146.83C215.74,-136.87 201.65,-123.37 189.94,-112.14"/>
<polygon fill="black" stroke="black" points="192.29,-109.54 182.65,-105.14 187.44,-114.59 192.29,-109.54"/>
</g>
<!-- n5&#45;&gt;n15 -->
<g id="edge10" class="edge">
<title>n5&#45;&gt;n15</title>
<path fill="none" stroke="black" d="M494.92,-792.92C483.11,-773.13 460.58,-739.74 432.9,-720 398.71,-695.61 352.19,-681.45 320.27,-674"/>
<polygon fill="black" stroke="black" points="320.98,-670.57 310.46,-671.81 319.46,-677.4 320.98,-670.57"/>
</g>
<!-- n5&#45;&gt;n13 -->
<g id="edge6" class="edge">
<title>n5&#45;&gt;n13</title>
<path fill="none" stroke="black" d="M485.09,-796.81C468,-785.73 442.59,-769.26 423.26,-756.73"/>
<polygon fill="black" stroke="black" points="425.15,-753.79 414.86,-751.29 421.35,-759.66 425.15,-753.79"/>
</g>
<!-- n5&#45;&gt;n12 -->
<g id="edge18" class="edge">
<title>n5&#45;&gt;n12</title>
<path fill="none" stroke="black" d="M503.5,-791.95C502.92,-765.29 501.9,-712.12 501.9,-667 501.9,-667 501.9,-667 501.9,-593 501.9,-510.48 389.04,-472.56 329.19,-458.25"/>
<polygon fill="black" stroke="black" points="329.9,-454.82 319.37,-456 328.33,-461.65 329.9,-454.82"/>
</g>
<!-- n4&#45;&gt;n14 -->
<g id="edge23" class="edge">
<title>n4&#45;&gt;n14</title>
<path fill="none" stroke="black" d="M133.86,-503.87C135.23,-479.67 137.73,-435.21 139.36,-406.39"/>
<polygon fill="black" stroke="black" points="142.86,-406.37 139.93,-396.19 135.87,-405.98 142.86,-406.37"/>
</g>
<!-- n4&#45;&gt;n12 -->
<g id="edge19" class="edge">
<title>n4&#45;&gt;n12</title>
<path fill="none" stroke="black" d="M154.81,-511.41C182.35,-499.37 229.8,-478.61 261.27,-464.84"/>
<polygon fill="black" stroke="black" points="262.72,-468.02 270.48,-460.81 259.92,-461.61 262.72,-468.02"/>
</g>
<!-- n4&#45;&gt;n11 -->
<g id="edge31" class="edge">
<title>n4&#45;&gt;n11</title>
<path fill="none" stroke="black" d="M110.72,-511.31C92.08,-502.27 65.71,-487.3 47.9,-468 17.71,-435.27 1.9,-423.53 1.9,-379 1.9,-379 1.9,-379 1.9,-305 1.9,-264.55 -5.7,-246.47 20.9,-216 48.54,-184.33 96.59,-171.58 130.2,-166.45"/>
<polygon fill="black" stroke="black" points="130.7,-169.91 140.13,-165.09 129.75,-162.98 130.7,-169.91"/>
</g>
<!-- n3&#45;&gt;n11 -->
<g id="edge32" class="edge">
<title>n3&#45;&gt;n11</title>
<path fill="none" stroke="black" d="M75.98,-220.97C93.61,-209.85 120.02,-193.19 140.01,-180.58"/>
<polygon fill="black" stroke="black" points="142.1,-183.41 148.69,-175.11 138.37,-177.48 142.1,-183.41"/>
</g>
<!-- n3&#45;&gt;n2 -->
<g id="edge36" class="edge">
<title>n3&#45;&gt;n2</title>
<path fill="none" stroke="black" d="M61.86,-216.24C68.07,-197.27 80.1,-166.14 97.9,-144 109.34,-129.77 125.4,-117.26 139.25,-107.97"/>
<polygon fill="black" stroke="black" points="141.46,-110.71 147.96,-102.34 137.66,-104.82 141.46,-110.71"/>
</g>
<!-- n2&#45;&gt;n10 -->
<g id="edge38" class="edge">
<title>n2&#45;&gt;n10</title>
<path fill="none" stroke="black" d="M174.3,-72.41C177.41,-64.34 181.23,-54.43 184.73,-45.35"/>
<polygon fill="black" stroke="black" points="188.03,-46.55 188.36,-35.96 181.49,-44.03 188.03,-46.55"/>
</g>
<!-- n1 -->
<g id="node19" class="node">
<title>n1</title>
<ellipse fill="none" stroke="black" cx="474.9" cy="-954" rx="27" ry="18"/>
<text text-anchor="middle" x="474.9" y="-950.3" font-family="Times,serif" font-size="14.00">v1</text>
</g>
<!-- n0 -->
<g id="node20" class="node">
<title>n0</title>
<ellipse fill="none" stroke="black" cx="546.9" cy="-954" rx="27" ry="18"/>
<text text-anchor="middle" x="546.9" y="-950.3" font-family="Times,serif" font-size="14.00">v0</text>
</g>
</g>
</svg>
